<svg xmlns="http://www.w3.org/2000/svg" version="1.1" x="0px" y="0px" viewBox="0 0 100 125" style={{"enableBackground":"new 0 0 100 100"}} ><g>
    <path d="M84.3,60V34.4V11.6h-10V2.1H62.2v9.4H29V2.1H16.9v9.4h-10v22.8V89h48.4c3.8,5.3,10,8.8,17,8.8c11.5,0,20.8-9.3,20.8-20.8   C93.1,70,89.6,63.8,84.3,60z M72.3,93.9c-9.3,0-16.8-7.6-16.8-16.8S63,60.2,72.3,60.2c9.3,0,16.8,7.6,16.8,16.8   S81.6,93.9,72.3,93.9z M10.9,34.4h69.5v23.4c-2.5-1-5.2-1.6-8-1.6c-11.5,0-20.8,9.3-20.8,20.8c0,2.8,0.6,5.5,1.6,8H10.9V34.4z    M10.9,15.6h6V25H29v-9.4h33.3V25h12.1v-9.4h6v14.8H10.9V15.6z M25,6.1V21h-4.1V6.1H25z M70.3,6.1V21h-4.1V6.1H70.3z"/>
    <path d="M61.4,81h11.5c1.1,0,2-0.9,2-2V63.7c0-1.1-0.9-2-2-2s-2,0.9-2,2V77h-9.5c-1.1,0-2,0.9-2,2S60.3,81,61.4,81z"/></g>
</svg>